<svg viewBox="0 0 171 123" fill="none" xmlns="http://www.w3.org/2000/svg">
<path d="M215.924 60.529C213.967 61.2486 211.996 62.0257 209.966 62.3998C205.433 63.2201 201.951 65.3788 199.706 69.4515C199.49 69.8544 198.986 70.0991 198.569 70.4589C198.209 70.0415 197.849 69.8112 197.705 69.4659C194.453 61.8961 188.653 56.7441 181.602 52.9881C177.241 50.6567 172.564 48.9442 168.031 46.9582C166.002 46.0659 163.972 45.1593 161.914 44.3534C151.467 40.2519 141.191 35.546 130.47 32.2936C121.389 29.5449 111.819 28.4368 102.436 26.6811C94.9814 25.2852 87.4693 24.5368 79.8564 24.3929C71.0202 24.2202 62.328 26.1774 53.3336 24.6807C47.0878 23.6302 41.3889 22.4213 36.4528 18.3487C33.4738 15.8878 29.9336 14.4343 26.1056 14.0025C21.9034 13.5276 18.3632 11.959 15.3842 8.90809C11.2828 4.70589 5.699 3.00773 0.877975 -9.91202e-06C0.590164 0.330986 0.287949 0.661984 0.000122027 0.99298C1.23776 2.01475 2.36028 3.26677 3.74182 4.01511C6.47614 5.49739 8.54845 7.54093 10.189 10.1457C11.3691 12.0166 12.5348 13.9738 14.0459 15.5568C15.9023 17.514 17.8451 19.9605 20.2196 20.752C26.451 22.8099 30.6676 26.9114 34.2798 32.049C37.0572 35.9922 40.0218 39.7914 42.9 43.6626C43.3749 44.2958 43.8354 44.9434 44.6126 46.0228C38.8561 44.1519 33.2148 43.7346 29.0414 39.6619C28.5953 39.2302 27.9189 38.9855 27.3 38.784C23.0835 37.4457 20.8672 34.2364 19.0108 30.4516C17.4709 27.2999 15.5137 24.3497 13.571 21.4283C12.0311 19.097 9.68533 17.7586 7.1525 16.9383C8.24623 18.8667 9.41191 20.6944 10.3329 22.6228C11.916 25.9472 12.6931 29.473 13.1248 33.1571C13.8012 38.8704 16.2189 43.5619 21.8602 46.1811C23.7886 47.0733 25.3716 48.829 26.9403 50.3545C29.9336 53.2471 32.8262 56.2404 35.7332 59.2194C38.6546 62.1984 41.6624 65.1054 44.3823 68.257C47.5339 71.9124 50.5129 75.726 53.3911 79.6116C57.5214 85.1953 62.9037 89.2393 68.7752 92.7507C79.8852 99.3706 90.9087 106.149 102.105 112.61C106.609 115.215 111.344 117.518 116.194 119.389C124.354 122.526 132.672 125.275 140.975 128.052C148.185 130.47 155.525 131.103 162.979 129.175C164.606 128.757 166.189 128.21 167.772 127.735C168.477 128.656 169.081 129.347 169.571 130.11C177.284 142.501 186.969 153.237 197.273 163.469C198.094 164.274 198.813 165.267 199.317 166.289C202.109 171.902 204.944 177.5 207.534 183.199C209.146 186.739 211.621 188.955 215.435 189.387C219.191 189.819 222.314 191.546 224.458 194.381C225.437 195.676 226.502 196.798 227.639 197.777L227.639 193.316C227.38 193.028 227.106 192.74 226.847 192.438C224.357 189.387 220.702 187.991 216.874 187.502C212.773 186.969 210.427 184.868 208.93 181.011C207.347 176.91 205.073 173.067 202.857 168.592C203.951 169.225 204.915 169.47 205.318 170.06C208.038 174.219 212.283 176.708 215.896 179.874C219.652 183.156 223.595 186.178 227.639 189.07L227.639 185.832C205.16 169.671 185.602 150.114 169.743 126.095C170.722 125.016 171.413 124.267 172.42 123.145C178.695 131.017 183.242 139.91 190.797 146.386C185.962 138.457 181.127 130.513 175.946 122.022C177.227 122.454 178.09 122.569 178.752 122.986C181.53 124.685 184.365 126.354 186.998 128.268C193.042 132.643 199.245 136.73 206.066 139.824C208.326 140.86 209.938 142.328 210.6 144.846C211.031 146.473 211.751 148.056 212.586 149.524C214.845 153.51 218.097 155.942 222.904 156.244C224.674 156.359 226.228 156.705 227.624 157.28L227.624 152.963C226.617 152.69 225.538 152.488 224.386 152.431C223.609 152.402 222.846 152.157 222.069 152.042C216.903 151.265 213.463 148.962 212.773 142.688C217.594 145.667 222.573 147.653 227.624 149.236L227.624 146.933C224.789 145.609 221.954 144.285 219.134 142.932C217.133 141.968 215.248 140.774 213.204 139.896C204.872 136.327 197.302 131.477 189.905 126.282C185.645 123.289 181.098 120.727 176.924 118.108C177.457 115.704 178.047 113.085 178.709 110.106C184.71 109.041 190.74 110.869 197.705 110.97C196.396 110.193 195.777 109.66 195.072 109.43C190.351 107.89 185.631 106.35 180.522 106.71C179.86 106.753 179.155 105.99 178.464 105.588C179.069 105.069 179.63 104.465 180.306 104.091C180.724 103.861 181.328 103.947 181.846 103.933C186.322 103.745 186.322 103.76 189.732 101.126C192.711 103.343 195.791 105.516 198.713 107.876C201.015 109.732 202.483 112.222 202.872 115.215C203.418 119.475 205.433 122.771 208.901 125.332C210.24 126.311 211.146 127.865 212.341 129.045C213.348 130.038 214.37 131.448 215.593 131.722C219.594 132.657 223.508 134.298 227.595 134.672L227.595 130.815C226.228 130.686 224.861 130.455 223.465 130.254C218.5 129.549 215.176 127.261 211.621 123.778C206.009 118.281 206.628 117.46 205.318 111.056C206.023 111.2 206.656 111.2 207.203 111.445C213.751 114.395 220.616 115.748 227.61 116.41L227.61 114.251C216.126 112.812 205.304 109.085 195.921 102.076C192.309 99.385 189.315 95.8736 185.861 92.5492C188.552 90.6496 190.754 89.0953 192.841 87.6131C195.503 90.9374 198.18 94.0891 200.655 97.4134C202.742 100.22 205.419 102.162 208.484 103.745C214.629 106.926 221.048 108.969 227.624 110.322L227.624 107.516C226.128 107.243 224.617 106.969 223.12 106.696C222.515 106.581 221.94 106.235 220.688 105.717C223.034 105.098 225.35 104.523 227.624 104.062L227.624 101.011C226.329 101.227 225.034 101.486 223.753 101.803C218.4 103.098 212.931 102.882 207.793 100.378C205.102 99.0684 203.433 96.7658 201.447 93.9164C202.915 94.2905 203.865 94.4776 204.786 94.7654C212.24 97.1544 219.911 97.9459 227.639 97.6581L227.639 94.3481C227.365 94.3625 227.092 94.3769 226.818 94.4057C219.983 94.7942 213.262 93.9452 206.671 92.0311C204.8 91.4843 202.771 91.3547 200.972 90.6496C199.331 90.0164 197.72 89.0522 196.424 87.8721C195.144 86.7208 194.539 85.2241 195.762 83.3389C196.669 81.9573 197 80.216 197.547 78.705C207.434 79.2518 217.234 80.3743 226.862 76.719C227.121 76.6183 227.38 76.5319 227.639 76.4456L227.639 73.1068C221.508 75.2943 215.392 77.0932 208.743 76.057C207.218 75.8267 205.62 76.1433 204.052 76.057C202.152 75.9419 200.267 75.6684 198.382 75.467C198.295 75.1072 198.209 74.7618 198.123 74.402C200.958 73.7976 202.541 71.898 204.066 69.6961C205.03 68.3146 206.8 67.3072 208.412 66.6452C211.78 65.2637 215.277 64.2131 218.472 63.1194C220.112 64.1556 221.465 65.4939 223.062 65.8969C224.732 66.3142 226.286 65.753 227.639 64.8175L227.639 60.5578C226.415 61.5652 224.919 62.2559 223.278 62.7308C220.673 59.2482 219.896 59.0755 215.924 60.529ZM184.595 94.7079C185.559 95.7296 186.365 96.9097 187.286 98.0898C185.055 101.99 180.896 100.105 178.162 102.637C176.881 99.9174 175.744 97.5141 174.464 94.823C177.371 94.3913 179.99 93.9307 182.652 93.6861C183.271 93.6141 184.106 94.1898 184.595 94.7079ZM168.765 93.1536C170.089 95.7009 171.513 98.1905 172.852 100.738C175.154 105.156 175.399 110.034 173.888 114.467C172.233 119.36 168.477 123.116 163.426 124.886C156.791 127.217 149.984 126.829 143.408 124.67C133.607 121.447 123.893 118.007 114.208 114.438C111.042 113.272 108.034 111.603 105.127 109.876C94.2331 103.429 83.411 96.8521 72.5601 90.3186C72.2291 90.1171 71.9701 89.8149 71.6822 89.5559C79.5686 81.5688 80.6767 79.4965 79.4966 73.6537C78.9929 75.0064 78.4892 76.3448 77.9855 77.6976C76.6616 81.3241 74.7044 84.4758 71.4088 86.7064C69.6819 87.8721 68.214 87.8865 66.4151 86.6488C62.069 83.6411 58.3992 79.9714 55.2476 75.7692C48.9875 67.3935 42.569 59.1618 34.1646 52.7434C33.1429 51.9663 32.2506 50.9445 31.5023 49.9083C29.0989 46.5696 26.2927 43.8209 22.479 42.0076C18.8957 40.2951 17.5429 36.9276 17.1975 33.1427C19.3562 37.8918 23.803 39.5899 27.6886 42.2523C34.1071 46.6416 41.4753 48.3685 48.4406 51.2036C53.7077 53.3478 59.3778 53.5349 65.0336 53.2039C68.1564 53.0168 71.3081 52.8585 74.4165 53.0312C81.425 53.4198 88.1025 55.046 93.9884 59.1187C105.631 67.1777 119.058 71.3079 132.053 76.3736C140.083 79.4965 148.07 82.7201 156.115 85.7566C158.403 86.6201 159.367 88.016 159.439 90.3761C159.497 92.4628 160.015 94.5352 159.957 96.6075C159.914 98.5071 159.382 100.392 159.079 102.206C161.368 101.126 162.361 99.8167 162.778 96.478C163.066 94.0603 163.008 91.585 163.109 89.0234C165.743 89.6566 167.599 90.9086 168.765 93.1536ZM187.977 87.2821C184.71 89.268 181.443 91.1101 177.471 91.1533C174.219 91.1964 171.369 90.6496 169.081 87.9009C167.887 86.4618 166.03 85.44 164.275 84.6341C158.82 82.13 153.323 79.698 147.739 77.4673C144.847 76.316 141.767 75.6253 138.745 74.7618C137.737 74.474 136.629 74.4884 135.694 74.0998C124.613 69.5378 113.56 64.9183 102.191 60.198C104.94 54.4703 108.351 49.7501 106.307 43.6482C105.746 46.1954 105.372 48.8146 104.566 51.2755C103.717 53.8515 102.465 56.298 101.242 59.1043C98.9822 57.8954 97.0538 56.8593 94.9526 55.7368C96.0176 52.0382 98.3058 48.6275 97.1545 43.8497C95.96 47.8792 94.9527 51.2323 93.8589 54.9021C92.1608 54.2545 90.9519 53.8515 89.7863 53.3622C82.5475 50.3401 74.9922 49.0305 67.1778 49.7213C55.8089 50.7286 47.6491 45.5191 41.2307 36.7405C38.5395 33.0564 35.9779 29.2715 33.2148 25.6449C30.3654 21.8889 26.5085 19.4568 21.9753 18.2335C17.6292 17.0535 14.8518 14.204 12.6787 10.376C13.1104 10.2752 13.4414 10.1169 13.5134 10.2033C17.1399 14.0457 21.5724 16.0173 26.782 17.0247C29.9768 17.6435 33.1716 19.428 35.8196 21.3996C40.727 25.0549 45.9509 27.0265 52.0959 27.2136C57.4207 27.3719 62.731 28.1778 68.5738 28.739C68.2572 31.4733 67.9549 34.1357 67.6527 36.7981C69.6387 34.5099 70.3583 31.7036 70.4014 28.2641C71.8118 28.1922 73.0638 28.0771 74.3158 28.0483C83.3534 27.9187 92.3191 28.4512 101.213 30.1925C104.422 30.8257 107.631 31.5021 110.869 31.8187C113.316 32.0634 114.395 33.2578 114.553 35.4885C114.755 38.4674 114.956 41.4608 114.999 44.4541C115.028 46.7711 114.827 49.0737 114.712 51.736C118.151 48.3973 118.885 44.2527 118.237 33.2291C124.123 34.0062 129.779 35.5029 135.291 37.5032C142.904 40.2807 150.474 43.1158 158.014 46.0659C163.109 48.0519 168.074 50.3977 173.183 52.3548C176.234 53.5205 177.86 55.6216 178.205 58.7013C178.623 62.3135 178.81 65.9545 179.083 69.4803C181.141 68.0699 181.645 65.5227 181.271 56.9024C182.436 57.55 183.501 57.8954 184.249 58.5862C187.372 61.5364 190.438 64.5441 193.431 67.6382C194.107 68.3434 194.697 69.4083 194.784 70.3725C195.287 75.8267 194.122 83.5548 187.977 87.2821Z" fill="#DAE6DA"/>
<path d="M153.654 96.0318C152.157 100.364 150.92 103.904 149.538 107.89C154.431 105.314 156.187 100.637 153.654 96.0318Z" fill="#DAE6DA"/>
<path d="M87.0086 76.2585C84.5333 79.6836 83.2093 83.0223 83.2957 85.3537C86.9798 82.2884 88.0879 79.8131 87.0086 76.2585Z" fill="#DAE6DA"/>
<path d="M104.234 89.6278C101.025 92.6355 97.8159 95.6289 94.2757 98.9389C99.3126 97.3846 102.033 93.83 104.234 89.6278Z" fill="#DAE6DA"/>
<path d="M108.509 91.1965C107.386 92.6212 105.875 93.8013 105.688 95.9743C108.883 94.4633 109.128 94.0891 108.509 91.1965Z" fill="#DAE6DA"/>
<path d="M89.9879 84.4471C89.9735 84.2744 89.6569 84.1448 89.1964 83.7563C88.7071 84.5478 88.2466 85.2961 87.7717 86.0445C88.0307 86.2316 88.2897 86.433 88.5488 86.6201C89.5561 86.3035 90.1318 85.6415 89.9879 84.4471Z" fill="#DAE6DA"/>
<path d="M171.11 61.119C170.995 66.2854 170.103 71.1928 166.678 75.9563C171.729 72.7326 173.73 65.9113 171.11 61.119Z" fill="#DAE6DA"/>
<path d="M64.6159 33.9054C64.1554 35.6323 63.7236 37.2729 63.0472 39.8057C66.0262 36.6109 66.0694 36.3663 64.6159 33.9054Z" fill="#DAE6DA"/>
</svg>
