<svg viewBox="0 0 180 161" fill="none" xmlns="http://www.w3.org/2000/svg">
<path d="M77.3699 100.33L77.3125 100.421L77.3699 100.33Z" fill="#DAE6DA"/>
<path d="M161.616 41.6609C161.339 42.4429 161.218 43.2778 161.004 44.0809C160.156 47.262 158.452 49.9339 155.826 51.892C154.987 52.5167 153.75 52.7762 152.663 52.885C151.06 53.0451 149.561 53.356 148.103 54.1104C146.099 55.1477 143.997 55.9827 141.491 57.106C139.108 55.8511 136.093 55.5941 132.613 56.7622C133.282 55.226 133.746 54.0561 134.279 52.9145C135.364 50.5815 136.077 48.2464 134.892 45.7067C134.692 45.2819 134.914 44.6695 134.856 44.1583C134.715 42.9693 134.786 41.6507 134.284 40.6245C133.497 39.0059 133.821 37.7131 134.731 36.3846C136.646 33.5959 137.423 30.5039 137.339 27.1376C137.258 24.0594 135.968 21.4275 134.508 18.8457C133.868 17.7168 132.759 17.4368 131.554 17.6023C130.296 17.7741 129.483 18.5525 129.176 19.7625C128.713 21.639 128.83 23.4725 130.503 24.708C131.966 25.7923 132.363 27.1778 131.737 28.6932C130.845 30.8418 129.772 32.9341 128.603 34.9489C127.983 36.0073 126.863 36.5827 125.55 36.6689C124.158 36.7581 122.877 37.11 121.883 38.225C121.608 38.5298 121.119 38.722 120.7 38.8251C116.313 39.8829 113.572 42.9382 111.278 46.5286C110.835 47.2303 110.512 48.0129 110.111 48.7397C108.647 51.3771 107.177 54.0072 105.818 56.4358C104.15 56.3325 102.753 56.5649 101.643 56.0886C100.409 55.57 99.4147 54.4479 98.3904 53.5117C98.0856 53.237 98.1321 52.6216 97.8702 52.2674C95.3155 48.8383 96.4062 45.3418 97.7068 41.892C98.5135 39.7391 99.2549 37.6367 98.7942 35.2684C98.4244 33.3632 97.6219 32.5339 95.8396 32.5075C94.0517 32.4737 92.3352 33.6135 92.0224 35.13C91.8921 35.787 91.8671 36.4902 91.9444 37.1608C92.3459 40.5483 91.496 43.546 89.6092 46.4168C87.8915 49.0412 86.5621 52.0034 87.2732 55.2214C87.8197 57.6857 87.4837 59.3824 85.473 61.1319C83.455 62.887 83.1209 65.637 82.9483 68.2508C82.9134 68.7762 82.9574 69.2986 82.9644 70.0582C82.1502 70.2348 81.3703 70.5007 80.58 70.543C75.857 70.8512 71.2872 71.7483 66.9212 73.705C65.1449 74.4969 63.172 74.8842 61.2529 75.3111C57.6563 76.1175 54.3324 77.3972 51.4446 79.8122C48.41 82.3522 45.0376 84.3648 41.1967 85.5453C40.1679 85.8643 39.1147 86.5268 38.3788 87.3152C37.2359 88.5222 37.5201 89.8212 38.8862 90.7949C40.3246 91.8171 41.9322 92.0828 43.6519 91.833C49.2667 90.9984 54.9165 90.2992 60.4975 89.2705C63.6129 88.6966 66.6169 87.5132 69.7001 86.7323C72.2621 86.0873 74.8725 85.625 77.4639 85.108C77.7328 85.051 78.0318 85.1679 78.7524 85.2606C77.8867 85.6856 77.3853 85.922 76.8952 86.173C74.7491 87.2967 72.6182 88.4551 70.4569 89.5442C67.762 90.9178 65.1069 92.3882 62.3226 93.5411C56.5735 95.9282 50.8949 98.3768 45.641 101.796C41.3526 104.573 38.749 108.543 36.9486 113.132C36.472 114.346 36.3219 115.818 36.454 117.13C36.6778 119.357 38.4146 120.195 40.4104 119.222C41.1504 118.859 41.8129 118.336 42.4794 117.833C43.262 117.24 44.0015 116.577 44.7617 115.955C48.1199 113.188 51.9505 111.529 56.2516 110.84C60.6388 110.141 65.0073 109.284 69.5285 108.459C66.1951 112.864 62.5919 116.875 57.2999 119.013C53.5535 120.526 50.1894 122.73 47.0989 125.348C46.3499 125.984 45.5207 126.531 44.738 127.124C42.8532 128.556 40.7275 129.166 38.3707 129.131C36.4049 129.107 34.3936 128.979 32.4732 129.314C30.3387 129.687 28.2007 130.341 26.2108 131.217C23.5278 132.396 23.1743 135.195 25.5053 137.059C26.8934 138.166 28.6143 138.924 30.2792 139.609C32.0992 140.36 34.0076 140.88 35.9055 141.431C41.9916 143.189 47.9411 143.058 53.9123 140.673C57.6973 139.165 61.6811 138.094 65.6421 137.099C68.7453 136.315 71.7077 135.302 74.5855 133.88C80.2517 131.07 85.528 127.681 90.493 123.812C92.6879 122.106 94.7548 120.174 96.6234 118.106C102.804 111.293 106.803 103.291 109.274 94.4519C110.063 91.6294 111.282 88.9147 112.352 86.0369C116.625 86.7828 120.467 85.4977 124.299 83.976C128.601 82.2661 133.079 81.1611 137.648 80.3228C140.602 79.7805 143.538 78.8238 146.292 77.6016C150.164 75.8756 151.549 72.4301 151.755 68.0284C153.323 66.876 154.292 64.9337 154.94 62.7996C155.429 61.1815 156.525 60.0339 158.093 59.4376C160.554 58.5113 162.378 56.7902 163.635 54.5906C165.214 51.8305 166.653 48.9806 167.93 46.0706C168.419 44.9627 168.482 43.5579 168.367 42.3134C168.208 40.5007 167.162 39.6859 165.344 39.5241C163.303 39.3269 162.226 39.9145 161.616 41.6609ZM125.618 38.6793C127.616 38.655 129.096 37.6287 130.233 36.1593C132.155 33.6789 133.55 30.9214 134.014 27.7695C134.274 26.0041 133.877 24.514 132.379 23.3403C131.839 22.9111 131.396 22.1869 131.24 21.5192C131.129 21.0602 131.585 20.4647 131.79 19.9352C132.242 20.2353 132.884 20.4356 133.104 20.8564C135.633 25.6034 135.986 30.3386 132.86 35.0124C132.398 35.7052 131.984 36.4303 131.602 37.166C131.025 38.2954 130.843 39.4559 131.461 40.6474C131.65 41.0118 131.742 41.4161 131.881 41.8069C129.478 40.2549 126.212 41.7907 123.962 39.1007C124.633 38.9188 125.127 38.688 125.618 38.6793ZM107.842 58.5473C107.756 58.4512 107.781 58.2582 107.737 57.9908C107.948 57.619 108.204 57.1548 108.471 56.7052C109.671 54.7009 110.889 52.7056 112.065 50.6852C112.595 49.7658 112.979 48.762 113.539 47.866C115.07 45.3745 116.954 43.236 119.658 41.9484C120.959 41.3375 122.253 41.1964 123.514 42.1239C124.602 42.918 125.836 42.9851 127.178 42.9811C131.299 42.9748 133.969 47.2428 132.261 50.9608C131.944 51.646 131.551 52.3085 131.271 53.0116C130.659 54.5616 129.914 56.0879 129.576 57.6929C129.162 59.6476 128.316 61.2394 126.853 62.5426C124.792 64.3772 123.245 66.5919 121.908 69.0036C120.733 71.1157 119.441 73.18 118.091 75.1845C117.026 76.7482 115.65 78.0429 113.732 79.1175C112.914 74.9504 112.068 71.1066 111.428 67.2305C110.903 64.0429 110.006 61.0495 107.842 58.5473ZM89.7092 51.9961C90.336 50.2256 91.0062 48.4215 91.9711 46.8188C93.5998 44.124 94.4691 41.3316 94.1223 38.18C94.045 37.5094 94.0225 36.8198 94.0901 36.1417C94.1829 35.1659 94.9986 34.5709 95.9911 34.6855C96.9138 34.7845 97.4619 35.4045 97.2305 36.4409C96.9369 37.7572 96.4134 39.0307 96.0297 40.3354C95.4032 42.5114 94.7324 44.6752 94.2273 46.8734C93.866 48.4622 94.1356 50.0275 95.0035 51.467C95.3323 52.0129 95.5337 52.634 95.7348 53.1047C93.6404 53.7249 91.7708 54.2758 89.413 54.9603C89.5135 53.8743 89.4076 52.8665 89.7092 51.9961ZM69.48 84.1204C65.0034 85.5134 60.5532 86.9557 55.8064 87.3982C51.9136 87.7609 47.9855 88.348 44.2692 89.78C42.9275 90.2943 41.4834 90.4356 39.523 89.3527C40.7123 88.7011 41.4071 88.1299 42.215 87.9002C46.3843 86.7096 49.9644 84.4556 53.274 81.7612C55.5676 79.8977 58.0984 78.7319 60.9871 78.0896C63.7148 77.4789 66.3799 76.5919 69.0535 75.7911C71.0069 75.1986 72.8984 74.3757 74.8779 73.937C77.8198 73.2884 80.8146 72.8887 83.9452 72.3494C84.5338 73.367 85.2231 74.3649 85.71 75.461C86.4261 77.0641 86.6555 78.6372 85.0277 79.9519C84.4435 80.4262 83.9842 81.0474 83.4857 81.6178C82.6818 82.5282 81.7609 82.8219 80.4832 82.7884C76.7596 82.6496 73.085 82.9946 69.48 84.1204ZM64.0214 107.286C61.549 107.642 59.0804 108.018 56.5945 108.326C50.844 109.045 45.8859 111.436 41.5944 115.306C40.7879 116.033 39.8452 116.598 38.6915 117.431C38.08 115.168 38.5183 113.438 39.495 111.896C41.2438 109.132 43.3769 106.685 46.0081 104.688C49.9141 101.73 54.3118 99.6797 58.778 97.8078C64.0872 95.5864 69.4858 93.5859 74.2621 90.2691C74.9381 89.7935 75.7167 89.4358 76.4927 89.1497C79.6093 88.0069 82.3024 86.2405 84.6147 83.8757C84.9313 83.5501 85.3706 83.3385 85.8376 83.0126C85.8687 85.3648 85.7645 87.4969 85.959 89.5954C86.1397 91.4959 85.6665 93.0899 84.3167 94.3292C82.0336 96.4164 79.6479 98.3858 77.3015 100.406C77.2959 100.399 77.2976 100.386 77.292 100.379C76.1372 101.525 75.144 102.941 73.7804 103.727C70.7751 105.48 67.5196 106.788 64.0214 107.286ZM109.644 85.983C107.406 91.9418 105.347 97.9825 102.727 103.761C99.8229 110.164 95.6393 115.84 90.1628 120.277C85.7679 123.833 81.1364 127.142 76.0326 129.749C71.8946 131.866 67.7758 133.783 63.1467 134.633C60.1118 135.191 57.0804 136.129 54.2493 137.341C50.9893 138.734 47.7168 139.614 44.1607 139.648C38.0707 139.702 32.6075 137.475 27.1778 135.141C25.987 134.635 25.9883 133.811 27.0786 133.166C27.8995 132.683 28.8289 132.221 29.7506 132.123C32.1567 131.877 34.5772 131.874 36.9863 131.706C38.86 131.581 40.7562 131.485 42.6106 131.154C43.5881 130.979 44.2691 131.126 44.7806 131.878C45.3314 132.682 45.8023 133.547 46.2458 134.421C46.5877 135.12 46.8256 135.863 47.1111 136.593C48.2177 133.838 46.6797 132.116 44.9585 130.292C46.2551 129.314 47.4402 128.492 48.545 127.581C51.4915 125.167 54.6108 123.037 58.1318 121.547C62.7746 119.573 66.5015 116.534 69.7044 112.635C72.3875 109.37 75.4326 106.393 78.4111 103.375C80.8088 100.955 83.3685 98.7009 85.8071 96.3196C87.4997 94.6535 88.2909 92.5706 88.3493 90.1841C88.4338 86.7806 88.59 83.3797 88.7148 79.9683C88.8076 77.4161 88.3809 74.9869 86.9612 72.8027C86.5898 72.2317 86.2402 71.6438 85.9253 71.0408C84.6921 68.6779 85.3267 64.7106 87.1892 62.9944C87.8439 67.1602 88.8433 69.8659 90.2924 71.2624C91.034 70.2262 90.7008 69.104 90.2395 68.2663C88.7556 65.5637 89.2828 62.8385 89.8775 60.0958C90.7054 56.3039 95.1838 54.6429 98.2676 57.0607C99.8075 58.2595 101.144 59.72 102.597 61.032C102.891 61.2921 103.307 61.4111 103.987 61.7667C103.92 60.5088 103.862 59.592 103.793 58.3928C106.334 60.0474 107.794 62.1778 108.393 64.8451C109.052 67.8014 109.284 70.8794 110.198 73.7441C111.505 77.9742 111.146 81.9835 109.644 85.983ZM144.502 75.2978C142.315 76.1285 140.057 76.8519 137.77 77.3427C133.922 78.1691 130.006 78.712 126.32 80.2133C124.567 80.9297 122.769 81.5292 120.985 82.1762C118.493 83.0919 115.944 83.5882 112.906 83.2563C113.642 82.6643 114.086 82.2635 114.566 81.9393C118.303 79.4372 121.175 76.1764 123.274 72.2143C123.628 71.5469 124.05 70.9078 124.386 70.2315C125.452 68.0988 126.931 66.3073 128.618 64.6339C129.578 63.6846 130.497 62.6385 131.195 61.4855C131.828 60.4288 132.656 59.7896 133.717 59.3178C135.603 58.4876 137.51 58.5105 139.499 58.969C140.896 59.2927 141.777 59.8639 142.192 61.317C142.69 63.0424 143.833 64.3276 145.403 65.2948C146.802 66.1616 148.078 67.2283 149.513 68.2763C148.633 71.3551 147.623 74.1164 144.502 75.2978ZM166.257 43.0036C166.143 43.8916 166.085 44.8522 165.692 45.6192C164.458 48.0442 163.137 50.4318 161.738 52.7636C160.597 54.6643 159.105 56.1991 156.933 57.0645C154.65 57.9809 153.15 59.7306 152.365 62.1217C151.97 63.3072 151.338 64.4098 150.75 65.6751C149.02 64.5303 147.606 63.7793 146.422 62.7572C145.61 62.051 145.064 61.0126 144.534 60.0419C144.152 59.3517 144.449 58.6245 145.199 58.381C147.762 57.5267 150.036 55.8176 152.865 55.7432C154.866 55.6932 156.515 54.8718 157.9 53.4669C159.946 51.3885 161.621 49.0987 162.377 46.2198C162.706 44.9801 163.163 43.7699 163.574 42.5603C163.85 41.7324 164.495 41.6519 165.225 41.772C165.939 41.8703 166.341 42.3014 166.257 43.0036Z" fill="#DAE6DA"/>
<path d="M79.7656 105.249C81.9136 107.416 83.8933 108.959 85.2824 110.924C86.6323 112.837 87.3916 115.172 88.4962 117.518C89.6143 116.504 89.7394 115.48 89.4712 114.412C88.4908 110.44 86.145 107.522 82.4772 105.729C81.825 105.41 80.9888 105.453 79.7656 105.249Z" fill="#DAE6DA"/>
<path d="M75.4383 126.998C76.7625 125.755 76.9339 124.626 76.2504 122.209C75.4995 119.555 74.0704 117.494 71.2011 116.765C74.3805 119.457 74.3792 123.434 75.4383 126.998Z" fill="#DAE6DA"/>
<path d="M57.4347 130.373C58.0452 131.779 58.4769 133.254 59.1612 135.206C60.7613 131.258 58.7498 126.912 55.2083 126.018C56.0043 127.559 56.8033 128.924 57.4347 130.373Z" fill="#DAE6DA"/>
<path d="M85.5918 104.704C87.3251 106.739 88.9558 108.655 90.6779 110.676C91.3036 107.388 88.7282 104.322 85.5918 104.704Z" fill="#DAE6DA"/>
<path d="M101.989 68.7572C103.844 70.5591 105.712 72.3626 107.678 74.2639C108.322 73.3263 107.987 72.3675 107.368 71.5357C106.039 69.7687 104.316 68.6183 101.989 68.7572Z" fill="#DAE6DA"/>
<path d="M105.655 76.1621C105.933 73.8497 105.264 73.1029 102.588 72.6999C103.781 74.0504 104.719 75.0998 105.655 76.1621Z" fill="#DAE6DA"/>
<path d="M119.354 62.5135C117.807 60.2541 115.682 58.7184 112.967 58.1141C112.796 58.0725 112.578 58.2407 112.222 58.3649C114.762 60.7848 117.158 63.0618 119.665 65.4381C120.237 64.4978 119.971 63.417 119.354 62.5135Z" fill="#DAE6DA"/>
<path d="M122.158 45.0828C123.974 47.3898 125.66 49.5427 127.341 51.6755C128.135 48.7557 125.687 45.5693 122.158 45.0828Z" fill="#DAE6DA"/>
<path d="M73.8385 95.8007C74.1732 97.165 74.5996 98.5281 75.2099 99.7839C75.5917 100.579 76.4434 100.721 77.288 100.359C76.5843 98.4563 75.8749 96.5466 75.2301 94.7957C74.0736 94.6339 73.6998 95.2007 73.8385 95.8007Z" fill="#DAE6DA"/>
<path d="M77.3704 100.33C77.343 100.34 77.3229 100.343 77.3011 100.36C77.3067 100.368 77.3107 100.388 77.3163 100.395C77.3219 100.402 77.3202 100.415 77.3258 100.422C77.313 100.421 77.3704 100.33 77.3704 100.33Z" fill="#DAE6DA"/>
<path d="M71.8134 101.63C71.1352 100.241 70.4553 98.8649 69.7658 97.4614C68.6674 98.8311 69.4585 100.817 71.8134 101.63Z" fill="#DAE6DA"/>
<path d="M69.5777 102.788C68.9465 101.745 68.4842 100.966 67.7402 99.7324C67.4788 102.171 67.5108 102.228 69.5777 102.788Z" fill="#DAE6DA"/>
<path d="M132.38 71.5933C132.722 72.9062 132.976 73.1614 134.731 73.6617C134.458 71.8671 134.128 70.2091 133.976 68.5412C133.829 66.9394 133.874 65.3165 133.827 63.4985C132.247 65.1007 131.659 68.8122 132.38 71.5933Z" fill="#DAE6DA"/>
<path d="M129.952 71.8108C130.87 70.6272 130.886 70.093 130.073 67.058C129.192 68.9201 129.373 70.3104 129.952 71.8108Z" fill="#DAE6DA"/>
<path d="M65.4028 84.2893C65.5705 84.2062 65.7382 84.1232 65.9058 84.0401C65.3852 82.9004 64.8646 81.7607 64.2306 80.384C63.5917 82.1988 63.8841 83.0278 65.4028 84.2893Z" fill="#DAE6DA"/>
</svg>
