<svg viewBox="0 0 122 96" fill="none" xmlns="http://www.w3.org/2000/svg">
<path d="M70.4563 9.71939C72.0456 7.1209 73.7568 4.59546 75.6042 2.17132C77.6542 -0.525148 80.1028 -2.91628 82.0308 -5.68581C85.2611 -10.3244 88.943 -14.5037 93.0289 -18.4088C95.3241 -20.6056 97.6845 -21.3262 100.851 -21.0331C105.174 -20.6371 109.781 -15.7647 107.806 -10.4211C107.017 -8.29388 105.873 -6.5895 104.087 -5.32668C102.476 -4.18051 100.738 -3.21768 99.0791 -2.12507C97.9831 -1.39811 96.7425 -0.761081 95.9048 0.210939C92.2558 4.47639 88.6197 8.76016 85.2104 13.2128C82.8621 16.2866 80.8685 19.6419 78.7585 22.8929C77.8855 24.2441 77.1147 25.6713 76.4277 26.8435C78.3925 28.3844 80.0438 29.7186 81.7558 30.9833C82.4011 31.4545 83.1468 31.9211 83.9182 32.0807C86.6414 32.6612 88.5596 34.2292 89.7626 36.6399C91.1966 39.5222 92.4682 42.4687 93.8076 45.3951C94.3582 46.5979 94.7226 47.9089 95.4382 48.9964C96.3673 50.4367 97.7621 51.6065 98.5768 53.0939C99.3901 54.5714 99.7463 56.3081 100.319 58.0029C104.481 58.1295 106.109 60.953 104.424 64.4145C103.414 66.4832 101.908 67.9981 100.008 69.308C97.8513 70.7972 95.6683 72.3811 93.8854 74.2804C90.042 78.3924 85.6359 81.4248 80.0566 82.4564C73.7791 83.6208 67.7326 85.6004 61.8288 87.9329C56.5648 90.0098 51.4332 89.8234 46.4045 87.7218C40.8488 85.4044 35.4023 82.7981 30.0065 80.1237C28.197 79.2271 26.5061 77.8987 25.082 76.4603C21.8887 73.23 18.8899 69.8094 15.8291 66.4485C14.8292 65.3521 13.8447 64.2232 12.9534 63.0402C10.0675 59.2189 8.38094 55.0295 9.00377 50.1169C9.10928 49.2524 8.92033 48.3098 8.73165 47.438C7.34927 41.1218 8.54988 35.3259 12.0856 29.945C12.9853 28.5697 13.8239 27.1225 14.4403 25.6069C15.3102 23.4779 16.4922 21.6164 18.3368 20.2742C21.7439 17.8029 25.242 15.4699 28.6634 13.0268C33.7404 9.40069 39.2555 9.30839 44.9949 10.8812C47.7853 11.6438 50.5283 12.5651 53.3283 13.2555C56.117 13.9376 58.5742 15.1838 60.7734 17.0137C61.9709 18.0103 63.2275 18.9274 64.5722 19.963C66.6005 16.4308 68.4341 13.0182 70.4563 9.71939ZM97.4319 55.4149C97 54.5383 96.6213 53.5428 95.9498 52.8935C93.9823 50.9891 92.9631 48.5918 91.9452 46.1336C90.7829 43.3125 89.4781 40.5528 88.155 37.8059C87.1797 35.7761 85.643 34.4655 83.3216 33.9371C82.1184 33.659 80.9878 32.7739 79.9805 31.9717C78.63 30.8965 77.4258 29.6482 75.5147 29.1607C75.0519 30.1384 74.6059 31.0933 74.1584 32.0384C75.9377 34.2432 77.9731 35.7838 80.5296 36.7426C82.2844 37.4046 83.9751 38.3187 85.5687 39.3278C87.1395 40.3201 87.9504 41.9193 88.4366 43.647C88.2294 43.8189 88.0207 43.981 87.8135 44.1529C87.7161 43.8337 87.6949 43.483 87.5242 43.215C86.1451 40.9817 84.0723 39.6689 81.6174 38.9883C78.4461 38.1098 75.5405 36.8385 73.1638 33.7308C71.9401 37.2358 68.8822 39.676 70.2487 43.7507C72.514 44.0346 74.3188 45.1745 75.5344 47.1892C76.4283 48.665 76.5333 49.1044 76.3114 51.31C75.0425 50.8596 74.8565 49.5932 74.1688 48.7643C73.4796 47.9256 72.7622 47.1011 71.7837 46.4261C72.994 48.8863 74.2323 51.2616 73.7577 54.2927C72.3812 53.4538 72.7871 52.0196 72.2289 51.0403C71.5683 49.9144 70.9245 48.7657 70.199 47.6796C69.5247 46.6668 68.7474 45.7096 67.9171 44.5985C64.1059 48.5845 59.5615 51.3643 53.268 51.6619C54.4994 50.1368 55.9828 50.4647 57.0596 49.8821C58.1279 49.3108 59.2576 48.8821 60.2739 48.0254C58.4966 48.1044 56.7192 48.1835 54.9418 48.2626C54.9043 48.0761 54.8782 47.898 54.8407 47.7114C55.2402 47.5416 55.6113 47.3153 56.0295 47.2033C57.0721 46.939 58.1279 46.7638 59.1676 46.4797C63.4736 45.3117 66.7055 42.8863 68.4567 38.6368C69.4331 36.2698 70.7212 34.0289 71.6028 31.6354C74.4435 23.9309 79.3962 17.4626 83.8686 10.7516C86.7846 6.38154 90.4946 2.53166 93.9963 -1.42916C95.0621 -2.63684 96.6033 -3.42918 97.9389 -4.38336C100.016 -5.86087 102.143 -7.27493 104.206 -8.78068C107.886 -11.4637 105.824 -17.2455 101.919 -18.4408C99.251 -19.2619 96.8276 -19.1081 94.6073 -16.9527C91.0428 -13.488 87.7138 -9.86588 84.9157 -5.72538C83.0723 -2.99861 80.9057 -0.477047 78.7446 2.01338C76.2977 4.82878 74.0705 7.76353 72.3128 11.074C68.3216 18.5836 64.1674 26.0161 60.111 33.4948C59.3233 34.9447 58.6235 36.4422 57.9676 37.9637C56.8296 40.6071 54.995 42.7059 52.9109 44.619C52.6347 44.8718 52.2378 44.9908 51.7128 45.27C51.3972 43.0523 53.2292 42.1061 53.8999 40.4107C48.3742 38.5033 44.295 41.6291 39.6299 44.6187C40.0494 43.7586 40.131 43.2817 40.4185 43.0373C44.1226 39.8352 48.1616 37.6754 53.2947 38.9734C54.1766 39.1976 54.1836 39.1764 55.3069 38.5667C53.8198 36.5615 51.3326 37.3815 49.478 36.5219C50.7093 34.2387 51.5675 34.1633 56.3373 35.8784C58.0542 32.6346 59.7894 29.3779 61.4909 26.1666C59.4882 23.9541 57.2277 22.7396 54.3554 22.3832C52.6872 22.1733 51.1027 21.2942 49.5105 20.6386C48.8335 20.3641 48.2432 19.8544 47.5871 19.5162C44.7063 18.0694 41.9183 17.9431 39.2437 20.0339C36.8878 21.8859 34.2812 23.2693 31.4796 24.3579C29.2414 25.2223 28.1625 26.3409 27.1832 28.3444C31.5009 30.1462 35.2838 32.6431 37.7537 36.7983C34.0046 34.2561 30.9348 30.4214 25.649 30.5609C25.1205 33.9132 23.4186 36.2958 21.1261 38.098C23.4349 40.8114 25.6269 43.3498 27.7853 45.9336C30.654 49.3632 34.2365 51.5964 38.6518 52.3428C42.9935 53.0697 47.1523 54.4096 51.2357 55.9931C52.1578 56.353 53.0897 56.7113 53.9332 57.2242C56.3926 58.6925 57.2619 61.4454 56.1663 64.1028C55.7419 65.1354 55.2522 66.1372 54.7838 67.1459C54.9214 67.2571 55.0704 67.3767 55.208 67.4879C56.0898 66.9541 57.0569 66.519 57.852 65.8767C60.5094 63.7379 63.3744 62.5995 66.8207 63.6297C68.4178 64.1128 69.7187 63.3356 70.4537 62.1461C72.8976 58.2093 76.6863 57.855 80.6585 58.1308C83.1397 58.3021 85.5528 59.1101 87.567 60.6437C89.3883 62.0338 91.4839 62.3325 93.6285 62.4825C95.3741 62.6001 96.8783 62.1063 97.923 60.548C98.2871 59.9993 98.776 59.5434 99.1407 59.1361C98.5334 57.8911 98.025 56.6316 97.4319 55.4149ZM38.0596 13.4157C36.3092 12.4397 34.4786 12.2941 32.6373 13.3832C27.953 16.1734 23.1166 18.7535 19.1491 22.5705C18.0515 23.6312 17.2778 25.0386 16.45 26.3528C15.795 27.3991 15.4209 28.6366 14.6836 29.6039C12.2171 32.8366 10.7734 36.4952 9.97412 40.4129C9.6578 41.9755 9.79015 43.6338 9.70215 45.7187C10.4149 44.9975 10.8221 44.6042 11.263 44.1655C11.4236 44.3642 11.618 44.5176 11.5886 44.5927C10.9253 46.4083 10.9666 48.2721 10.8722 50.176C10.6332 54.8807 12.4063 58.7643 15.3979 62.1354C19.1778 66.4014 23.0748 70.5695 27.0238 74.6793C28.1456 75.8487 29.5061 76.9224 30.9542 77.6295C36.435 80.3319 41.8948 83.0979 47.5395 85.4022C53.0015 87.6323 58.7648 87.7158 64.1899 85.2211C69.1322 82.9489 74.3205 81.7321 79.5599 80.5887C84.603 79.4843 88.6404 76.9002 92.1827 73.2165C94.1645 71.1567 96.5038 69.3981 98.8349 67.7216C100.416 66.5798 101.808 65.3949 102.636 63.5956C103.418 61.9039 103.435 61.8812 101.922 60.183C100.66 60.328 99.914 61.236 99.2219 62.1664C98.1077 63.6642 96.6313 64.4167 94.7905 64.5455C91.7593 64.7582 88.9362 64.3238 86.2932 62.5692C83.0122 60.3928 79.3543 59.5049 75.4342 60.6162C74.3281 60.9303 73.1967 61.2784 72.5938 62.6101C73.8933 64.37 74.4568 66.3491 73.1885 68.9308C72.5413 67.2772 72.0071 65.9104 71.4728 64.5435C69.9378 64.7588 69.6461 65.3879 69.9889 66.6211C70.8583 69.7884 69.8431 72.717 68.9905 75.652C68.7868 75.6415 68.5831 75.631 68.3794 75.6205C68.4057 75.1113 68.4236 74.6134 68.4498 74.1042C68.5132 72.9527 68.6063 71.797 68.6286 70.6414C68.7134 65.5754 66.1273 64.621 61.4451 65.7735C60.6059 65.9776 59.839 66.6057 59.0957 67.1192C57.7404 68.0762 56.4345 69.0261 54.7045 69.2902C54.0713 69.3832 53.4246 70.0038 52.9883 70.5429C52.217 71.4849 51.5947 72.5466 50.5373 73.3993C50.9388 72.2791 51.3715 71.1644 51.7305 70.0302C52.1343 68.7883 52.4745 67.5255 52.8259 66.2711C53.0909 65.3226 53.2922 64.353 53.5883 63.41C54.249 61.3016 53.8238 59.9895 51.7632 59.2409C48.1221 57.9159 44.4165 56.7722 40.7125 55.6383C39.5373 55.2752 38.2811 55.1868 37.0765 54.8988C34.4775 54.2697 32.0351 54.6385 30.203 56.6157C28.5469 58.4154 27.1847 60.4954 25.7273 62.4782C25.4586 62.8512 25.3162 63.3269 25.1256 63.7491C24.7261 59.2393 26.263 56.6283 31.3826 52.6725C28.4529 51.0307 26.2716 48.7029 24.4622 46.0173C23.6741 44.8494 22.8776 43.6929 22.1192 42.5207C20.7192 40.3511 18.8241 39.6287 16.3596 40.4657C15.378 40.8019 14.3807 41.0999 13.029 41.5309C14.5438 38.7008 16.891 38.2348 19.1433 38.086C20.0028 36.9187 20.8251 35.9793 21.4177 34.922C22.1312 33.6548 22.6576 32.2838 23.2378 30.9352C24.7851 27.3625 26.3252 23.7403 30.2887 22.1677C33.0775 21.0607 35.6443 19.6124 38.0657 17.862C39.043 17.1525 40.198 16.6898 41.6051 15.9474C40.306 15.0163 39.2586 14.0786 38.0596 13.4157ZM59.031 18.0883C57.2452 16.7334 55.2518 15.8233 53.0407 15.2889C50.0015 14.5527 46.9998 13.6593 43.9761 12.8905C42.8322 12.6037 41.6479 12.4542 40.1846 12.194C41.1289 13.531 41.7665 14.5694 42.5395 15.4969C42.8691 15.8831 43.4656 16.1594 43.9722 16.2366C46.5462 16.6267 48.8227 17.6064 50.9978 19.0658C52.2541 19.9123 53.8277 20.51 55.3277 20.7445C57.6328 21.0933 59.5834 21.9187 61.2429 23.5145C61.5254 23.7863 61.9121 23.9418 62.4224 24.2509C62.9013 23.3821 63.3155 22.6239 63.762 21.8104C62.1249 20.5044 60.5984 19.263 59.031 18.0883Z" fill="#DAE6DA"/>
<path d="M81.5498 1.91471C82.4678 0.870251 83.4155 -0.178588 84.142 -1.35665C85.5305 -3.60222 86.8636 -5.8801 88.0423 -8.24647C89.6897 -11.5509 92.7189 -13.0165 95.819 -14.4118C96.2172 -14.5915 96.7293 -14.5455 97.3738 -14.63C96.9387 -12.7064 95.7521 -11.6326 94.3689 -10.9342C92.2151 -9.83965 90.7028 -8.16211 89.3668 -6.24768C88.0898 -4.41268 86.7789 -2.60299 85.5785 -0.728687C83.7779 2.08277 81.0768 3.92475 78.5576 5.97251C79.0713 4.23949 80.4417 3.17913 81.5498 1.91471Z" fill="#DAE6DA"/>
<path d="M90.2862 48.9445C91.5096 51.4938 92.5035 53.5816 93.5657 55.7907C90.9179 54.9666 89.5171 52.2413 90.2862 48.9445Z" fill="#DAE6DA"/>
</svg>
