<svg viewBox="0 0 194 107" fill="none" xmlns="http://www.w3.org/2000/svg">
<path d="M192.873 51.4535C194.444 50.3067 194.364 48.8503 192.689 47.7723C190.636 46.442 188.366 46.4076 186.038 46.7746C184.386 47.0383 182.735 47.2562 180.889 47.0383C181.267 46.6484 181.611 46.2012 182.047 45.8801C184.558 44.0108 187.116 42.2103 189.604 40.2952C190.247 39.8021 190.854 39.0567 191.107 38.3112C191.313 37.7034 191.187 36.7172 190.786 36.2355C189.73 34.9626 188.308 34.0796 186.554 34.286C183.951 34.5956 181.313 34.8364 178.779 35.4557C172.334 37.0383 165.912 37.7493 159.352 36.2585C157.448 35.8227 155.476 35.6621 153.572 35.2378C150.544 34.5727 147.528 34.458 144.455 34.9397C143.698 35.0543 142.781 34.8479 142.093 34.4924C138.996 32.8983 136.026 31.0291 132.872 29.5956C128.262 27.497 124.18 24.5956 120.005 21.8203C115.453 18.7928 110.59 16.396 105.556 14.2974C100.407 12.1529 95.0625 10.7767 89.5465 10.1345C81.9776 9.26292 75.0395 6.70555 68.4569 2.90966C66.3583 1.69405 63.9271 1.01747 61.6106 0.214718C60.8422 -0.0490452 59.9248 -0.0261261 59.0991 0.0541496C56.1403 0.363784 55.2229 1.99223 56.5532 4.60693C57.161 5.81106 57.8835 6.9808 58.6633 8.09319C60.4982 10.7538 62.4019 13.357 64.2711 15.9946C66.3239 18.873 68.8927 21.2125 71.7597 23.2194C73.1932 24.2171 74.1106 25.5015 75.051 26.9694C77.5051 30.8341 80.2689 34.5039 82.918 38.2424C83.2621 38.7241 83.6749 39.1484 84.3286 39.9282C82.8951 40.3066 81.7139 40.6277 80.5212 40.9374C76.0602 42.1186 71.5418 42.692 66.9202 42.7493C56.8284 42.8755 46.8743 44.2287 37.3329 47.5085C31.8054 49.4122 26.5301 52.0842 21.2434 54.6416C16.0254 57.176 10.7731 59.5499 5.09648 60.8802C3.88087 61.1669 2.64235 61.6944 1.59876 62.371C-0.648953 63.8389 -0.488377 65.7999 1.83962 67.0843C3.53687 68.0247 5.34879 68.1967 7.26393 68.2196C9.71807 68.2426 12.1723 68.4834 14.6149 68.6554C15.7158 68.7357 16.8168 69.0339 17.9062 69.0224C23.2388 68.9421 28.3764 69.9513 33.5026 71.3045C36.5989 72.1187 39.81 72.4513 43.4453 73.082C39.6953 75.1807 36.2893 77.0958 32.8719 78.9881C27.998 81.683 23.7893 85.261 19.6723 88.9537C18.6745 89.8482 17.803 90.9376 17.0576 92.073C15.3374 94.6762 15.9108 97.7267 18.5255 99.4354C26.725 104.825 35.7733 107.085 45.4866 105.789C52.9179 104.802 60.1082 102.669 67.0349 99.745C76.9432 95.5592 87.2185 92.5775 97.8378 90.8574C102.276 90.1349 106.806 89.9858 111.221 89.1601C117.976 87.8872 124.696 86.339 131.37 84.6876C134.077 84.0225 136.68 82.8757 139.237 81.7518C146.485 78.5752 153.71 75.3527 160.877 72.0155C163.022 71.0178 165.006 69.6646 166.99 68.3458C168.4 67.4054 169.799 66.9696 171.531 67.2219C173.962 67.5774 176.439 67.9444 178.779 66.7173C179.077 66.5683 179.352 66.3848 179.581 66.2471C180.155 64.4237 178.664 63.5866 177.861 62.3595C181.152 59.16 184.696 56.4535 188.607 54.1943C190.075 53.3686 191.508 52.4512 192.873 51.4535ZM146.221 36.786C147.987 36.9465 149.753 37.0039 151.496 37.2791C155.028 37.8296 158.526 38.5177 162.047 39.1255C165.51 39.7103 168.985 39.8365 172.437 39.114C176.175 38.3342 179.902 37.4626 183.641 36.6943C185.35 36.3388 187.081 36.2355 188.744 37.1874C186.302 38.9305 184.054 40.5131 181.829 42.1186C179.902 43.5062 177.999 44.9397 176.049 46.2814C175.659 46.5567 175.063 46.5337 174.249 46.7172C176.118 44.114 178.882 42.8296 180.006 40.0544C178.721 40.3296 177.54 40.7425 176.531 41.3961C175.178 42.2792 173.951 43.3456 172.689 44.3434C171.175 45.5475 169.467 46.2012 167.517 46.2126C163.297 46.2356 159.042 45.9259 155.097 47.3136C152.001 43.8502 149.065 40.5704 146.141 37.3021C146.175 37.1415 146.198 36.9695 146.221 36.786ZM34.5691 68.6439C29.4429 67.2563 24.2709 66.4536 18.9498 66.5797C17.7686 66.6027 16.553 66.5338 15.3947 66.3045C12.6998 65.754 10.0048 65.6623 7.27541 65.949C5.6699 66.121 4.07589 66.0063 2.08047 64.7449C3.8236 64.1141 5.06211 63.5522 6.35799 63.2311C11.2433 62.004 15.8993 60.2035 20.4177 57.9673C24.9819 55.6966 29.6035 53.5177 34.2824 51.4764C36.8398 50.3526 39.5004 49.3434 42.2068 48.7012C50.739 46.6943 59.3399 45.1347 68.1588 45.2149C69.856 45.2264 71.5762 45.1347 73.2276 44.825C76.645 44.1943 80.051 43.4718 83.434 42.6346C85.3148 42.1645 86.7712 42.3365 88.3423 43.6668C90.6015 45.5819 93.1589 47.153 95.5901 48.8617C98.7896 51.1095 101.989 53.3457 105.177 55.6164C105.705 55.9833 106.141 56.465 106.84 57.0957C102.758 57.9443 98.9617 58.7356 95.1658 59.5155C94.8332 59.5843 94.4892 59.6072 94.1566 59.6187C92.7346 59.6875 91.3011 59.7219 89.8791 59.7907C88.9502 59.8366 88.0098 60.043 87.1038 59.9513C81.106 59.3549 75.0739 58.9306 69.1335 58.0132C61.255 56.7861 53.4224 56.4421 45.5439 57.8412C42.4476 58.3916 39.3398 59.0338 36.2205 59.1714C27.7686 59.5155 19.4888 60.7884 11.3924 63.2196C11.0025 63.3343 10.647 63.5636 10.28 63.7357C11.4841 64.0797 12.5736 64.0453 13.6516 64.0338C14.6722 64.0224 15.6929 63.9306 16.7021 64.0568C20.9108 64.6072 25.1081 65.2724 29.3168 65.8114C34.7068 66.4994 40.0967 67.2563 45.5669 66.465C47.2412 66.2242 48.9729 66.2357 50.6587 66.3848C53.1128 66.6026 55.544 67.0614 57.9752 67.4169C57.9752 67.6577 57.9752 67.8871 57.9867 68.1279C55.7619 68.5178 53.5486 69.16 51.3124 69.2288C49.6724 69.2862 48.0096 68.5866 46.3582 68.2426C45.6931 68.1049 44.9591 67.5086 44.3398 68.3687C44.6953 68.8848 44.9935 69.3206 45.4178 69.9398C41.5761 69.9398 38.021 69.5728 34.5691 68.6439ZM85.1084 62.9559C84.5579 63.1393 84.0189 63.4031 83.457 63.4834C80.4409 63.9421 77.4134 64.3894 74.3973 64.7907C71.8629 65.1233 71.0601 64.1256 71.6106 61.2586C76.0487 61.7058 80.4983 62.1646 84.9593 62.6233C84.9937 62.7379 85.051 62.8526 85.1084 62.9559ZM69.684 65.6967C65.2917 65.3297 61.0028 65.043 56.7367 64.5843C55.4064 64.4467 54.2137 62.4054 54.4316 61.0522C54.5807 60.1577 54.9476 59.4467 56.06 59.4925C60.544 59.6646 65.0166 59.8022 69.3744 60.8687C69.4776 62.371 69.5578 63.7815 69.684 65.6967ZM52.3101 63.5751C48.411 63.8733 44.6953 64.1715 40.9797 64.4352C38.8238 64.5843 38.4453 64.0453 38.9614 61.6485C43.2389 60.9833 47.5049 59.9398 51.8972 59.8136C52.0462 61.1669 52.1725 62.3366 52.3101 63.5751ZM36.0714 64.3664C32.1379 63.9994 28.4108 63.6439 24.6723 63.2999C28.5026 62.0613 33.1012 61.7288 36.0026 62.2219C36.0141 62.8412 36.037 63.4834 36.0714 64.3664ZM159.845 69.8481C151.691 73.5064 143.526 77.1188 135.361 80.7427C134.891 80.9491 134.409 81.1096 133.916 81.2587C123.331 84.5271 112.517 86.8092 101.508 87.8757C91.863 88.8161 82.6199 91.2702 73.5373 94.4124C66.3124 96.9124 59.3743 100.158 51.8628 101.89C45.8077 103.289 39.8559 103.839 33.6861 102.807C28.8925 102.004 24.6035 100.043 20.2915 98.0363C19.2365 97.5432 18.1814 96.9354 17.8603 95.7083C20.0622 91.5798 21.576 90.3413 28.0898 85.456C36.576 79.0912 46.0256 74.4238 56.1862 71.2472C62.8721 69.16 69.7528 68.0362 76.6795 67.3022C82.4134 66.6944 87.7919 64.9742 93.2047 63.1737C97.2988 61.8091 101.565 60.9604 105.728 59.7563C108.652 58.9077 111.175 59.4123 113.572 61.2701C114.558 62.0384 115.831 62.4283 116.966 63.0132C117.425 63.2425 117.861 63.5293 118.308 63.7815C113.526 64.5843 108.881 65.043 104.225 65.2953C98.824 65.5935 93.6291 66.6485 88.5832 68.621C83.996 70.41 79.3515 72.0958 74.7414 73.8504C74.2483 74.0339 73.7895 74.3435 72.8148 74.8596C75.4065 75.3986 77.4019 75.4215 79.3514 74.7449C81.3583 74.0454 83.3652 73.3229 85.3033 72.4742C91.84 69.6302 98.5603 67.7495 105.762 67.6462C111.209 67.5774 116.599 66.7403 121.886 65.3985C124.191 64.8137 126.164 65.5132 128.606 66.8435C127.563 67.2104 127.104 67.4513 126.611 67.5201C122.654 68.0591 118.709 68.7013 114.73 69.0453C105.292 69.8596 95.9571 71.1554 87.0694 74.5729C80.0281 77.2793 72.7574 78.7587 65.2574 79.4697C57.2069 80.238 49.2596 81.6027 41.8283 85.0431C41.3008 85.284 40.693 85.3986 40.1082 85.5018C34.248 86.6028 29.0301 89.3092 23.8351 92.0271C22.7571 92.589 21.8282 93.6097 21.1058 94.6188C20.2571 95.7886 20.7388 96.9124 22.1149 97.4514C22.6654 97.6693 23.2732 97.7267 23.8466 97.8528C30.8077 99.2978 37.7343 98.9537 44.5807 97.2794C49.6954 96.0294 54.7183 94.4239 59.7871 93.0019C63.8812 91.8551 67.9179 90.4445 72.0808 89.6991C77.3216 88.7702 82.5625 87.8528 87.9754 87.7381C97.5282 87.5202 106.76 84.8367 116.037 82.7381C124.478 80.8344 132.173 76.9697 139.902 73.1852C143.4 71.4765 147.047 69.871 150.797 68.9765C154.788 68.0132 158.996 67.9329 163.102 67.4742C163.171 67.6462 163.228 67.8183 163.297 67.9788C162.162 68.5981 161.038 69.3091 159.845 69.8481ZM97.3791 84.0913C95.7162 84.3665 94.4777 84.6532 93.2162 84.7564C89.0763 85.1005 84.9363 85.3986 80.7964 85.6509C80.2574 85.6853 79.5464 85.5133 79.1795 85.1578C77.8951 83.9078 76.7941 82.5087 77.0923 80.5936C82.8607 78.7013 88.5144 76.855 94.4663 74.9054C93.8126 78.5866 95.2805 81.2243 97.3791 84.0913ZM97.6314 74.1027C102.505 73.1165 107.471 72.2793 112.815 71.832C111.886 75.2724 113.767 77.5545 115.59 80.261C110.923 81.2931 106.634 82.2449 102.345 83.1739C100.819 83.5064 99.73 82.5546 98.7667 81.6371C96.7254 79.6991 96.3469 76.9582 97.6314 74.1027ZM115.716 71.6715C116.37 71.6027 117.047 71.5683 117.712 71.465C122.058 70.777 126.531 70.5706 130.602 68.793C132.184 68.105 133.159 68.3917 134.134 69.4926C134.799 70.238 135.361 71.0637 136.015 71.9008C135.648 72.3366 135.567 72.5201 135.43 72.5774C130.441 74.6646 125.441 76.7518 120.43 78.816C120.051 78.9766 119.593 79.0683 119.191 79.011C116.359 78.6325 114.363 74.4238 115.716 71.6715ZM76.4959 86.0867C71.4156 87.3023 66.3354 88.5064 61.1977 89.7335C59.7184 88.5408 58.3078 87.222 58.3651 84.9972C58.3995 83.3688 58.7092 82.8298 60.3376 82.6234C65.2 82.027 70.0625 81.5224 74.7529 81.0064C75.3836 82.8069 75.9569 84.5041 76.4959 86.0867ZM58.044 90.9147C54.7298 91.9124 51.2435 92.9331 47.7802 94.0225C46.06 94.5615 44.787 93.9537 43.8696 92.5775C43.3077 91.7404 42.849 90.8 42.5623 89.8482C42.0921 88.2542 42.7228 86.8665 44.3284 86.4078C48.1357 85.3184 52.0004 84.4239 55.4981 83.5408C56.3697 86.0867 57.1495 88.3459 58.044 90.9147ZM42.1953 95.3069C39.5462 95.5822 36.943 95.8803 34.3397 96.1211C33.5829 96.1899 32.803 96.2129 32.0462 96.1441C31.0484 96.0524 29.6379 94.6647 29.4659 93.6326C29.3282 92.7496 29.443 91.8436 30.3604 91.4422C33.4338 90.1119 36.404 88.4262 39.4889 88.1165C40.4178 90.5477 41.232 92.7266 42.1953 95.3069ZM28.8696 96.2244C26.9315 95.5248 25.2686 95.9721 23.6746 94.8138C25.131 94.034 26.3581 93.3803 27.6655 92.6808C28.0783 93.8734 28.365 94.745 28.8696 96.2244ZM136.806 68.9192C137.872 69.0339 138.538 69.0682 139.18 69.1715C139.788 69.2632 140.372 69.4238 141.313 69.6187C140.04 70.2151 139.157 70.6394 138.056 71.1554C137.666 70.4674 137.31 69.8252 136.806 68.9192ZM176.061 65.0545C174.18 64.8825 172.288 64.699 170.407 64.527C170.396 64.527 170.373 64.527 170.361 64.527C170.212 64.5384 170.074 64.5499 169.925 64.5728C164.26 65.0201 158.549 65.1806 152.941 65.9949C146.21 66.9811 139.581 67.3137 132.976 65.4444C129.386 64.4237 125.843 63.2655 122.253 62.2219C116.771 60.6278 112.058 57.6462 107.54 54.2402C103.95 51.5338 100.303 48.8388 96.4846 46.4764C89.2253 41.981 83.5487 36.0176 78.778 28.5405C81.1748 30.0199 82.4478 32.3938 85.0969 33.013C85.3836 31.224 84.3285 30.1002 83.2964 29.2057C80.6014 26.8777 77.8263 24.63 74.9593 22.5199C71.9317 20.2951 68.9844 18.0474 66.5991 15.0886C64.317 12.2446 61.9202 9.50376 59.5807 6.70558C58.5715 5.48998 57.4821 4.29728 57.4592 2.62296C58.7206 1.70552 59.9477 1.92342 61.0257 2.34774C63.239 3.19637 65.4867 4.04501 67.528 5.22621C73.9271 8.91888 80.613 11.717 88.0098 12.6574C95.6704 13.6322 102.987 15.7882 109.868 19.3203C111.898 20.3639 113.847 21.5565 115.751 22.8066C120.934 26.2011 125.843 30.0658 131.622 32.497C139.249 35.6965 145.522 40.5819 150.648 47.0613C154.891 52.4283 160.304 56.3159 166.623 58.9765C168.962 59.9627 171.187 61.2356 173.423 62.4742C174.421 63.0246 175.304 63.793 176.244 64.4582C176.187 64.6531 176.118 64.8595 176.061 65.0545ZM170.453 57.8068C171.829 57.3022 173.033 56.8549 174.467 56.3274C172.643 58.7127 172.368 58.8159 170.453 57.8068ZM177.402 59.137C176.668 59.6875 176.049 60.6049 174.501 60.1577C175.281 59.3549 175.866 58.793 176.393 58.1967C177.242 57.2448 178.251 56.3847 178.824 55.2838C179.363 54.2517 180.04 53.77 181.107 53.5407C182.104 53.3343 183.079 53.0361 184.054 52.7264C185.109 52.3939 186.175 52.0384 186.886 50.2723C185.441 50.4329 184.375 50.4443 183.354 50.6737C179.444 51.5567 175.762 53.059 172.035 54.5154C168.985 55.7081 165.625 56.3159 162.517 54.3664C161.084 53.4604 159.719 52.4283 158.4 51.3732C157.781 50.8801 157.345 50.1806 156.496 49.2058C157.895 49.0223 158.79 48.7815 159.684 48.8044C164.776 48.9076 169.868 48.9535 174.937 49.2516C178.905 49.481 182.85 50.2379 186.829 49.1943C188.125 48.8617 189.57 48.7471 191.256 49.5498C189.123 50.7998 187.219 51.7517 185.499 52.9673C182.735 54.9398 180.109 57.0842 177.402 59.137Z" fill="#DAE6DA"/>
<path d="M171.072 63.7471C170.717 63.2884 170.327 62.7723 169.822 62.52C167.792 61.465 165.808 60.1806 163.629 59.5728C159.707 58.4604 155.705 57.5544 151.68 56.9695C146.542 56.2241 141.829 54.5039 137.299 52.0269C134.099 50.2723 130.797 48.7012 127.471 47.1874C123.721 45.4901 120.223 43.4259 117.276 40.5245C109.592 32.9557 100.521 27.5084 90.7391 23.1735C87.1152 21.568 83.8698 19.4235 80.9225 16.8317C75.8307 12.3592 70.2688 8.678 63.9729 6.10918C62.9063 5.6734 61.8972 5.11149 60.5439 4.44635C60.7274 5.07709 60.7389 5.4211 60.8994 5.63899C62.0921 7.1757 63.3765 8.65506 64.5118 10.2262C65.865 12.1069 67.5852 13.5634 69.3284 15.0771C73.8238 18.9648 78.1128 23.0932 82.5165 27.0841C85.8537 30.1116 89.1335 33.1965 92.6198 36.0405C99.1336 41.3617 105.728 46.591 112.402 51.7287C116.163 54.6301 119.959 57.5774 124.076 59.9168C130.074 63.3228 136.645 65.1118 143.641 64.6531C149.398 64.2746 155.143 63.7242 160.888 63.3342C162.827 63.1966 164.788 63.1508 166.703 63.3457C167.804 63.4604 168.847 64.1599 169.914 64.5842C170.063 64.5613 170.2 64.5499 170.35 64.5384C170.361 64.5384 170.384 64.5384 170.395 64.5384C170.636 64.2517 171.118 63.8044 171.072 63.7471ZM78.2733 19.3661C74.6953 16.5221 71.1289 13.6666 67.5623 10.811C71.7137 12.9556 75.716 15.2721 78.8239 18.8615C78.5028 19.1482 78.2963 19.3776 78.2733 19.3661ZM87.9638 28.9763C85.3835 26.3845 82.9523 23.9648 80.5669 21.4992C80.4293 21.3616 80.6472 20.8799 80.716 20.4212C83.6862 22.2331 86.5532 23.9762 89.4546 25.7423C89.0303 26.6597 88.5716 27.646 87.9638 28.9763ZM92.0808 32.5887C90.59 31.5222 90.4638 30.0772 90.7391 28.529C91.0028 27.0382 91.9661 26.5221 93.3194 27.2217C96.0946 28.6552 98.7896 30.2263 101.404 31.6827C100.166 33.7928 99.168 35.4901 98.1588 37.1988C96.1404 35.6621 94.1565 34.068 92.0808 32.5887ZM111.049 47.2906C108.147 45.1002 104.89 42.8525 101.897 40.2837C99.9937 38.6552 101.37 34.4694 103.835 33.8158C104.202 33.724 104.73 33.7469 105.017 33.9534C108.262 36.224 111.553 38.4373 113.962 41.1208C112.93 43.3112 112.012 45.2378 111.049 47.2906ZM127.127 58.598C122.849 56.3618 118.87 53.8273 115.235 50.7998C113.709 49.5268 113.675 45.9603 114.982 44.4465C115.67 43.6438 116.381 43.3915 117.379 44.1369C119.145 45.4443 120.969 46.6828 122.849 47.8181C124.352 48.7241 125.98 49.4236 127.597 50.2379C126.794 53.0016 125.774 55.6852 127.127 58.598ZM143.411 62.0269C140.051 62.3021 136.794 61.9925 133.595 60.9489C129.237 59.5154 127.345 54.8136 129.707 50.8342C132.528 52.3709 135.303 54.0223 138.205 55.4099C141.095 56.7975 144.111 57.9099 147.253 59.2287C146.599 61.0751 145.349 61.8664 143.411 62.0269ZM148.916 61.3274C149.122 60.5131 149.26 59.9627 149.398 59.4237C152.368 59.4925 153.732 59.7677 155.705 60.754C153.308 60.9604 151.198 61.1324 148.916 61.3274Z" fill="#DAE6DA"/>
<path d="M144.237 43.7355C144.409 46.3502 144.971 48.4833 145.659 50.7081C147.345 50.2608 147.425 49.1828 147.276 48.0819C147.036 46.3388 146.669 44.63 144.237 43.7355Z" fill="#DAE6DA"/>
<path d="M140.476 42.5543C141.038 44.3089 141.393 45.4557 141.806 46.7401C143.262 45.1002 142.976 44.0566 140.476 42.5543Z" fill="#DAE6DA"/>
</svg>
