<svg viewBox="0 0 144 435" fill="none" xmlns="http://www.w3.org/2000/svg">
<path d="M22.2712 250.406C21.782 247.542 21.2715 244.479 20.7397 241.245C15.7409 245.783 12.2311 251.229 9.61475 258.546C12.8905 258.376 15.6345 258.206 18.5487 258.064C19.7186 255.625 20.9949 253.015 22.2712 250.406Z" fill="#F2F2F2"/>
<path d="M23.2286 346.156C22.7606 346.099 21.8459 345.645 21.0589 345.901C17.6555 346.922 14.2308 347.886 10.9762 349.474C10.0403 349.928 8.99801 352.537 9.18945 353.814C9.40217 355.232 10.955 357.189 11.9973 357.302C16.2941 357.756 20.3144 355.998 23.6965 352.452C25.377 350.694 25.1004 347.687 23.2286 346.156Z" fill="#F2F2F2"/>
<path d="M30.6518 351.119C30.9921 350.949 32.0557 350.41 33.5659 349.644C31.8004 346.695 31.2899 343.093 28.5459 341.873C29.3329 345.305 29.9711 348.084 30.6518 351.119Z" fill="#F2F2F2"/>
<path d="M17.5279 297.487C18.5276 297.714 20.5271 296.409 20.7398 295.303C21.0802 293.658 20.676 290.453 19.8464 289.914C16.1027 287.503 12.1249 285.433 7.33887 288.354C9.9127 294.197 13.465 296.523 17.5279 297.487Z" fill="#F2F2F2"/>
<path d="M17.1658 315.667C17.6976 309.172 15.379 305.428 11.6991 302.989C8.29566 300.749 4.78588 299.331 1.78662 304.067C3.23307 312.065 9.01889 315.497 17.1658 315.667Z" fill="#F2F2F2"/>
<path d="M27.0784 336.796C27.2486 332.542 24.8662 331.861 23.0581 330.925C18.6762 328.657 13.018 329.337 9.55078 332.173C11.529 339.009 18.2508 340.88 27.0784 336.796Z" fill="#F2F2F2"/>
<path d="M9.93359 266.743C14.1453 271.451 18.5485 273.521 23.1857 274.627C24.1429 274.854 25.7808 274.145 26.1849 273.181C26.5465 272.302 25.9297 270.146 25.2277 269.182C21.9732 264.616 15.7407 263.51 9.93359 266.743Z" fill="#F2F2F2"/>
<path d="M24.3984 257.383C25.3556 263.084 29.9715 267.99 36.7358 270.571C37.6505 263.169 32.3965 257.553 24.3984 257.383Z" fill="#F2F2F2"/>
<path d="M37.7991 257.468C35.3742 249.102 32.3962 242.323 25.8233 237.615C25.3979 249.981 31.3326 253.526 37.7991 257.468Z" fill="#F2F2F2"/>
<path d="M25.4829 367.881C27.9291 370.433 30.1626 369.582 32.1408 368.108C34.1191 366.661 35.8421 364.648 37.6927 362.861C39.2455 361.386 39.3944 359.628 38.5223 357.387C37.5863 355.033 36.2462 354.976 34.5445 355.515C29.9286 356.962 26.9081 360.932 25.4829 367.881Z" fill="#F2F2F2"/>
<path d="M45.5632 318.532C44.2018 331.039 47.3925 341.533 54.4546 349.9C55.3267 350.921 56.4967 351.46 58.1984 352.708C59.9639 345.646 60.2617 339.009 60.1766 332.344C60.1128 326.274 59.6874 320.205 59.4959 314.136C59.2832 306.988 58.0495 300.295 55.2417 294.084C52.4338 287.873 51.0937 281.633 53.1571 274.089C54.7524 268.303 54.6461 261.78 53.1571 255.455C52.8805 256.448 52.604 257.44 52.3275 258.433C51.1576 262.772 50.4556 267.509 48.7114 271.423C44.4145 281.066 43.4148 291.191 45.2867 301.883C46.2651 307.471 46.1801 312.859 45.5632 318.532Z" fill="#F2F2F2"/>
<path d="M76.4707 265.041C75.2157 257.695 69.8979 251.541 64.4312 250.633C65.5798 257.355 70.5998 263.566 76.4707 265.041Z" fill="#F2F2F2"/>
<path d="M66.877 275.96C71.8332 281.463 77.2574 278.116 86.1063 270.316C84.0004 266.232 82.6603 265.41 80.5757 268.019C78.321 270.827 76.0449 271.394 73.0669 271.536C71.0249 271.621 69.0679 274.287 66.877 275.96Z" fill="#F2F2F2"/>
<path d="M48.7752 430.759C57.5816 426.76 66.1327 421.797 74.8114 417.316C84.2984 412.409 93.6153 407.077 103.889 405.092C117.099 402.568 126.692 392.187 133.499 377.326C141.221 360.45 143.688 341.817 143.986 322.19C144.305 301.599 139.157 283.051 133.903 264.389C132.861 260.702 131.032 257.412 129.585 253.952C123.246 238.806 116.567 223.917 110.675 208.459C103.953 190.847 101.401 171.646 100.72 152.048C100.039 132.393 100.082 112.681 99.1246 93.0267C98.5077 80.1504 96.6146 67.3025 92.0412 55.7309C86.0427 40.6424 77.0236 30.659 63.6652 29.2409C60.2405 28.8722 56.6244 23.8522 56.1351 18.3216C55.9012 15.5705 56.1139 12.706 56.3053 9.92652C56.5606 6.06931 55.8373 2.77937 53.1359 1.0493C50.3281 -0.76586 47.8819 1.13439 46.0738 3.8004C44.84 5.61555 44.053 8.11137 43.3936 10.4654C42.564 13.5285 42.1386 16.7901 41.3941 19.9099C40.7347 22.6043 39.3308 23.5686 37.2674 22.349C22.5477 13.7837 11.0398 21.4414 0.829583 35.3103C0.553056 35.7074 0.297799 36.1045 0.0212714 36.5016V51.7886C1.95697 46.3148 4.55207 41.238 7.87041 36.6434C17.2511 23.682 29.2694 21.4698 40.9048 30.3754C43.032 32.0204 45.1378 33.8355 47.4352 34.97C49.307 35.906 51.4342 36.1329 53.455 36.2747C58.475 36.6717 63.7503 34.1759 68.4938 37.3808C72.3652 39.9901 75.7686 43.8189 79.4486 46.9387C83.1923 50.1152 85.362 54.8233 87.1063 60.0419C90.7224 70.8761 92.7006 82.3626 93.2537 94.076C94.1045 112.54 94.296 131.06 94.7427 149.552C95.317 172.298 98.5077 194.278 106.293 214.699C110.76 226.384 115.397 237.984 120.545 249.158C125.65 260.191 129.692 271.706 133.01 283.902C139.157 306.563 139.391 329.281 135.201 352.367C131.84 370.887 123.204 382.686 109.271 387.366C103.145 389.436 96.9974 391.478 90.7862 393.18C77.8319 396.725 65.1755 401.235 53.1997 409.119C48.7114 412.069 43.6063 413.714 38.6288 414.962C32.5027 416.522 26.4403 415.614 20.7396 411.417C16.9107 408.58 12.8054 406.396 7.89168 403.305C5.16894 401.376 2.53129 399.249 0 396.867V406.368C1.02103 407.219 2.02078 408.041 3.06308 408.836C7.63642 412.296 12.6565 414.678 17.2724 418.082C24.0366 423.073 31.2264 424.094 38.7139 423.017C45.2655 422.081 51.4129 419.301 57.2838 415.472C66.0263 409.772 75.0667 405.375 84.6813 403.163C85.7236 402.936 86.7872 402.936 87.8508 402.823C73.6202 410.878 59.9853 420.407 44.9039 424.52C39.4371 425.995 33.6513 427.554 28.2271 426.675C18.1019 424.945 8.59363 421.031 0.0850855 413.799V422.846C7.55134 427.469 15.0601 431.752 23.3134 433.709C32.1198 435.779 40.5645 434.503 48.7752 430.759ZM44.3508 26.1495C45.4569 21.5265 46.4354 17.3573 47.4139 13.2165C47.9457 11.0043 48.3711 8.76369 49.0092 6.60819C49.6048 4.5945 50.6471 3.6302 52.7317 5.58716C51.2215 13.3016 49.9239 21.5265 54.2845 28.9289C50.2642 30.4888 50.2642 30.4888 44.3508 26.1495ZM113.44 394.258C113.525 394.683 113.61 395.108 113.695 395.534C109.207 397.179 104.74 398.824 100.252 400.469C100.146 399.93 100.039 399.419 99.9329 398.881C104.442 397.321 108.952 395.789 113.44 394.258Z" fill="#F2F2F2"/>
<path d="M12.082 377.014C14.3793 379.453 17.0595 381.438 21.016 378.715C19.3781 377.212 18.2082 376.078 16.9744 375.028C9.52945 368.562 3.61601 360.507 1.85048 348.368C1.38251 345.192 1.27616 341.845 1.40379 338.612C1.63777 332.798 1.40379 327.154 0.0849609 321.651V357.756C2.63753 365.158 6.82798 371.455 12.082 377.014Z" fill="#F2F2F2"/>
<path d="M41.713 174.368C41.2876 176.496 40.8622 178.623 40.4155 180.75C38.2458 191.357 36.3952 202.05 32.2685 211.806C29.3331 218.726 25.249 224.002 21.0373 229.334C16.5915 234.978 12.2735 240.82 8.04045 246.719C4.29669 251.938 2.42481 258.461 1.0209 265.382C0.723102 266.856 0.38276 268.331 0.0849609 269.806V310.987C3.33948 317.114 8.33825 318.872 13.4221 320.404C18.7825 322.02 22.0796 317.766 20.9734 310.59C20.6331 308.35 19.9099 306.223 19.3781 304.096C25.7382 298.792 26.7593 291.928 22.2497 285.802C18.5485 280.782 9.52945 280.498 5.72187 285.348C4.29669 287.192 3.87126 289.319 5.16882 291.616C6.01967 293.091 6.97688 294.452 8.04045 296.126C5.53043 296.807 3.19058 297.459 0.212589 298.253C2.23337 289.518 4.19034 281.151 6.33874 271.876C8.93385 273.777 11.1248 275.677 13.4859 277.067C16.0385 278.541 18.7187 280.045 21.4414 280.612C25.5255 281.463 29.716 281.605 31.0773 274.174C32.2473 275.138 32.9492 275.705 33.9915 276.556C29.7798 282.399 29.2055 289.035 30.3116 296.353C30.6732 298.735 30.1627 301.458 29.6947 303.897C28.3121 311.356 26.7593 318.759 25.1214 327.04C24.0578 326.757 22.4412 326.104 20.8033 325.962C17.5062 325.65 14.1666 325.112 10.9121 325.565C8.46588 325.906 6.27493 328.005 5.72187 331.72C5.21136 335.095 6.594 337.534 8.44461 339.576C9.35928 340.569 10.2739 341.561 11.4864 342.894C10.2527 344.483 9.21038 345.702 8.25317 347.007C6.61527 349.247 5.12628 351.715 6.1473 355.09C7.21087 358.579 9.16784 361.103 12.0395 361.273C14.4644 361.443 16.9106 360.734 19.3356 360.394C20.3353 360.252 21.3351 359.997 22.7815 359.713C22.271 361.613 21.8668 362.861 21.5903 364.137C20.2715 370.547 22.5901 374.66 27.6101 374.83C30.9072 374.943 33.8639 373.61 36.3314 370.661C37.5013 369.271 38.5861 367.768 39.7986 366.208C40.6282 370.859 40.7771 371.143 36.0336 375.511C33.6725 377.666 30.6519 378.545 27.5888 380.162C33.6937 383.849 41.394 381.495 44.372 375.113C45.2441 373.242 45.6695 370.717 45.6695 368.505C45.6695 360.365 43.2871 353.502 38.8627 347.886C34.6935 342.639 31.6091 336.513 30.2052 328.94C29.1417 323.24 29.2055 317.823 31.4815 312.604C34.417 305.854 35.3954 298.792 34.1404 290.964C33.1194 284.639 34.1404 279.024 39.1392 275.649C41.9045 273.777 42.5639 270.118 41.3727 265.183C40.8196 262.886 40.458 261.099 41.3089 258.631C41.8407 257.043 41.3301 254.519 40.7984 252.647C38.2671 243.458 34.9062 237.927 27.7377 230.979C38.3734 214.898 43.4147 196.094 41.713 174.368ZM7.3385 288.355C12.1246 285.433 16.1023 287.532 19.8461 289.915C20.6756 290.425 21.0798 293.658 20.7395 295.303C20.5267 296.381 18.5272 297.714 17.5275 297.487C13.4647 296.523 9.91233 294.197 7.3385 288.355ZM11.6991 302.989C15.3791 305.428 17.6977 309.172 17.1659 315.667C8.99766 315.497 3.23312 312.065 1.78667 304.067C4.78593 299.331 8.29571 300.749 11.6991 302.989ZM9.55072 332.174C13.018 329.309 18.6761 328.657 23.058 330.926C24.8874 331.862 27.2485 332.542 27.0783 336.797C18.2507 340.881 11.529 339.009 9.55072 332.174ZM23.6962 352.424C20.314 355.941 16.2937 357.728 11.9969 357.274C10.9334 357.161 9.40182 355.204 9.18911 353.785C8.99767 352.481 10.04 349.9 10.9759 349.446C14.2304 347.886 17.6764 346.922 21.0585 345.872C21.8456 345.646 22.7602 346.071 23.2282 346.128C25.1001 347.688 25.3766 350.694 23.6962 352.424ZM38.5223 357.416C39.3945 359.628 39.2456 361.386 37.6927 362.89C35.8634 364.648 34.1192 366.662 32.1409 368.137C30.1414 369.611 27.9292 370.462 25.483 367.91C26.9082 360.933 29.95 356.99 34.5446 355.572C36.2463 355.005 37.5864 355.062 38.5223 357.416ZM33.5661 349.645C32.0771 350.41 30.9923 350.949 30.6519 351.119C29.9712 348.113 29.3331 345.305 28.5461 341.902C31.2688 343.093 31.8006 346.695 33.5661 349.645ZM20.7395 241.246C21.2925 244.479 21.803 247.542 22.271 250.406C20.9947 253.016 19.7184 255.625 18.5272 258.064C15.6131 258.234 12.8691 258.376 9.59326 258.546C12.2309 251.229 15.7407 245.784 20.7395 241.246ZM26.2062 273.209C25.8233 274.174 24.1642 274.883 23.2069 274.656C18.5485 273.55 14.1666 271.451 9.95488 266.771C15.762 263.51 21.9945 264.644 25.2703 269.21C25.9297 270.175 26.5678 272.33 26.2062 273.209ZM36.7355 270.572C29.95 267.991 25.3553 263.084 24.3981 257.384C32.3962 257.554 37.6502 263.169 36.7355 270.572ZM37.7991 257.469C31.3326 253.498 25.3766 249.981 25.8233 237.615C32.3962 242.323 35.3954 249.102 37.7991 257.469Z" fill="#F2F2F2"/>
<path d="M40.6497 276.698C39.8626 282.427 38.5012 288.241 38.7565 293.942C39.2032 303.925 39.6074 313.795 39.5861 323.835C39.5435 337.505 44.521 349.077 53.689 356.423C58.9218 360.62 62.4315 358.635 63.6653 350.58C64.5374 344.879 64.9628 338.98 65.0479 333.166C65.133 325.934 64.665 318.673 64.4523 311.441C64.2396 304.294 62.942 297.544 60.0917 291.418C57.6667 286.227 56.8584 281.151 58.2623 274.826C59.5812 268.898 59.3472 262.403 59.8364 255.625C62.623 259.652 65.0905 263.283 67.8557 267.282C66.8773 268.444 65.835 269.494 64.9416 270.742C62.0699 274.797 62.5804 279.789 66.3455 282.398C70.6848 285.376 75.1305 285.121 79.5124 282.228C82.3203 280.356 85.1706 278.57 88.2337 276.584C89.4249 280.129 90.6799 283.221 91.4669 286.511C91.8286 288.042 91.786 290.482 91.0841 291.616C89.8078 293.743 88.2124 292.098 86.9149 290.935C86.1917 290.283 85.6811 289.149 84.9154 288.695C83.4689 287.844 81.9161 287.362 80.1293 287.759C81.6396 290.084 83.1286 292.439 84.6388 294.764C87.0212 298.451 89.7014 299.33 92.5731 297.373C95.4022 295.445 97.0613 290.793 95.9339 286.653C95.1682 283.845 93.6154 281.462 92.5731 278.768C91.8073 276.754 90.8501 274.571 90.765 272.415C90.4885 264.219 88.5528 261.297 82.3415 260.56C81.831 260.503 81.3205 260.418 80.7462 260.333C77.6618 254.065 73.2374 249.896 68.4939 246.265C64.112 242.919 62.8357 243.202 58.39 248.109C57.4328 245.046 56.6032 242.068 55.5396 239.203C54.7313 237.048 53.4337 234.807 51.4555 236.027C50.2643 236.764 49.3284 238.863 48.8179 240.622C48.3286 242.295 48.4988 244.309 48.5201 246.18C48.6264 255.823 46.9885 264.672 42.2237 272.245C41.4367 273.521 40.8624 275.138 40.6497 276.698ZM80.576 268.019C82.6606 265.41 84.0007 266.261 86.1066 270.316C77.2364 278.116 71.8122 281.462 66.8772 275.96C69.0682 274.287 71.0464 271.621 73.0672 271.536C76.0452 271.394 78.3212 270.827 80.576 268.019ZM76.4706 265.041C70.5997 263.566 65.5797 257.355 64.431 250.633C69.9191 251.541 75.2156 257.695 76.4706 265.041ZM48.7115 271.422C50.4558 267.508 51.1577 262.8 52.3276 258.433C52.6042 257.44 52.8807 256.447 53.1572 255.455C54.6675 261.808 54.7526 268.303 53.1572 274.088C51.0939 281.633 52.434 287.872 55.2418 294.084C58.0496 300.266 59.3046 306.96 59.4961 314.135C59.6663 320.205 60.0917 326.274 60.1768 332.344C60.2619 339.009 59.9641 345.645 58.1985 352.707C56.4968 351.459 55.3056 350.921 54.4548 349.9C47.3927 341.533 44.202 331.011 45.5633 318.531C46.1802 312.859 46.2866 307.47 45.3081 301.855C43.4149 291.191 44.4147 281.065 48.7115 271.422Z" fill="#F2F2F2"/>
<path d="M90.7652 362.096C95.5938 365.499 99.8906 365.272 103.464 360.876C107.442 355.97 110.271 349.872 110.59 342.583C110.867 336.343 110.399 329.99 109.952 323.722C109.356 314.873 107.952 306.081 107.846 297.261C107.612 279.166 103.124 263.85 93.1263 251.513C88.7444 246.096 84.3837 240.679 79.938 235.347C75.8114 230.412 72.8334 224.427 70.1319 218.074C68.409 214.075 66.2393 210.388 64.1334 206.673C62.6019 203.978 60.8789 201.454 58.9219 198.363C57.7733 202.532 58.773 205.34 60.7087 207.552C64.1972 211.494 65.7926 216.798 67.7283 222.102C69.9405 228.114 72.8334 233.872 76.0879 239.005C80.7251 246.323 85.9366 252.988 90.9779 259.851C96.9764 268.019 100.507 277.719 101.486 289.064C102.379 299.303 103.294 309.513 104.294 320.631C102.805 320.602 101.614 320.574 100.507 320.574C100.252 319.922 99.9331 319.496 99.9969 319.184C101.614 309.74 98.5717 304.776 91.2757 305.457C88.6806 305.684 86.1493 306.818 84.3412 307.329C81.1505 303.642 78.13 300.607 75.5561 296.977C73.4503 293.999 71.8975 290.283 69.9405 286.596C69.4725 291.531 70.3872 294.538 73.3439 298.991C74.8542 301.26 76.4708 303.443 77.7684 305.882C79.7466 309.626 80.7251 313.824 80.2996 318.504C79.5339 327.324 81.0441 335.265 85.3622 342.129C86.6811 344.228 87.149 346.355 86.7874 349.219C85.8727 356.48 86.8938 359.373 90.7652 362.096ZM102.549 327.835C106.485 329.82 106.634 330.614 105.485 336.854C100.316 337.024 95.296 336.797 92.1903 328.884C95.6576 324.119 99.1886 326.161 102.549 327.835ZM84.4263 319.751C84.4263 317.057 84.4476 314.845 84.4476 312.094C88.6593 311.612 92.5519 309.173 96.5935 313.937C93.7857 321.482 89.0847 319.581 84.4263 319.751ZM85.7451 328.061C85.5537 327.636 85.8302 326.814 85.894 325.906C87.0001 325.963 87.9786 325.991 88.9571 326.048C89.0847 336.145 92.9561 340.087 105.527 343.15C105.719 348.709 103.485 352.906 100.805 356.593C99.0823 358.976 96.87 359.118 94.4876 357.558C92.0202 355.913 91.9564 353.53 92.5945 350.524C93.6155 345.617 92.637 341.42 90.2546 337.478C88.5317 334.585 87.1703 331.266 85.7451 328.061Z" fill="#F2F2F2"/>
<path d="M74.4498 363.598C67.1963 364.506 61.1977 369.015 56.6882 376.787C56.433 377.212 56.518 377.978 56.3691 379.141C61.1339 376.503 65.92 374.801 69.8977 371.398C74.5987 367.399 78.9806 372.135 84.6388 371.114C81.4694 366.037 78.4063 363.116 74.4498 363.598Z" fill="#F2F2F2"/>
</svg>
