<svg viewBox="0 0 151 140" fill="none" xmlns="http://www.w3.org/2000/svg">
<path d="M48.6281 42.1363C49.6236 42.5489 51.1289 41.8276 52.3773 41.6322C52.3828 41.1502 52.3797 40.6919 52.3852 40.2098C43.3241 36.0294 33.9614 33.2461 23.8626 33.532C30.9208 39.8141 40.5359 38.816 48.6281 42.1363Z" fill="#E6E6E6"/>
<path d="M35.48 7.09035C37.8608 7.11487 40.2112 7.31668 42.54 7.67207L30.8044 3.44187C25.8171 5.14004 22.6013 8.5525 20.9184 13.7814C19.9224 16.9182 17.9645 19.7353 16.2324 22.58C13.1486 27.6804 13.8167 32.923 19.4016 37.4102C22.3981 39.8349 26.4096 41.6842 30.2308 43.0347C34.3796 44.5033 38.82 45.1627 43.1661 46.0839C46.6651 46.8342 49.1531 48.2419 51.1046 51.2311C56.2381 59.0246 63.6249 65.0487 73.2104 68.988C76.1163 70.1699 78.9536 71.5422 81.7611 72.9038C97.9552 80.7311 115.027 86.5891 131.302 94.4724C159.126 107.944 185.476 123.17 210.774 140.007L213.485 132.486C211.419 131.123 209.323 129.749 207.256 128.385C184.917 113.61 160.885 101.29 136.315 89.5295C119.087 81.3026 100.873 75.4365 83.8846 66.9194C80.1456 65.0607 76.2997 63.4055 72.6077 61.5099C64.3857 57.3361 63.7101 56.6893 55.3564 45.6913C61.6572 43.3371 61.2265 38.5565 60.1273 33.6694C59.3525 30.2169 59.8539 27.3319 62.2964 24.8509C63.0394 24.0968 63.7657 23.2023 64.0195 22.2181C64.6219 19.7999 65.6914 17.9534 67.1218 16.5059L58.2457 13.3064C58.7475 13.5949 59.2579 13.8595 59.7512 14.1718C57.9716 17.2413 56.6326 19.5554 55.4733 21.5578C49.3072 19.5234 43.6858 17.6585 38.1027 15.7805C37.8888 16.1874 37.6662 16.6181 37.4522 17.025C38.728 17.7807 39.9523 18.6792 41.3179 19.279C52.111 23.9763 52.1196 23.9525 52.3482 34.5226C41.902 30.7303 31.4586 29.1709 20.8045 30.0635C20.7645 29.0541 20.4812 28.2528 20.8143 27.8888C25.3197 23.1395 28.102 17.6615 29.5318 11.454C30.0449 9.00357 31.86 7.04938 35.48 7.09035ZM52.355 40.1992C52.3495 40.6812 52.3526 41.1395 52.3472 41.6216C51.0988 41.817 49.5935 42.5383 48.5979 42.1257C40.5058 38.8054 30.882 39.8273 23.8324 33.5214C33.961 33.2462 43.3238 36.0294 52.355 40.1992Z" fill="#E6E6E6"/>
<path d="M146.355 72.2265C173.459 79.1995 200.477 86.2225 225.603 98.7753L226.778 95.5148C218.463 91.4147 209.886 87.7584 200.945 85.0195C181.964 79.2266 162.79 74.0632 143.716 68.5321C127.165 63.7493 110.609 58.8844 94.08 53.9481C90.7349 52.9575 87.5317 51.4802 84.281 50.2278C84.1053 50.6216 83.8914 51.0285 83.7157 51.4224C88.5739 53.6307 93.2731 56.3734 98.2862 57.9652C114.245 62.9915 130.216 68.0761 146.355 72.2265Z" fill="#E6E6E6"/>
</svg>
